<svg width="46" height="46" viewBox="0 0 46 46" fill="none" xmlns="http://www.w3.org/2000/svg">
<path fill-rule="evenodd" clip-rule="evenodd" d="M23 0C35.7029 0 46 10.5568 46 23.5817C46 33.9984 39.4174 42.8351 30.2841 45.9562C29.118 46.1885 28.704 45.4521 28.704 44.8242C28.704 44.0468 28.7316 41.5076 28.7316 38.352C28.7316 36.1533 27.9956 34.7182 27.1699 33.9868C32.292 33.4026 37.674 31.4083 37.674 22.3509C37.674 19.7749 36.7816 17.6728 35.305 16.0214C35.5442 15.4257 36.3331 13.0271 35.0796 9.77949C35.0796 9.77949 33.1522 9.14761 28.7615 12.1974C26.9238 11.6753 24.955 11.4126 23 11.4034C21.045 11.4126 19.0785 11.6753 17.2431 12.1974C12.8478 9.14761 10.9158 9.77949 10.9158 9.77949C9.6669 13.0271 10.4558 15.4257 10.6927 16.0214C9.223 17.6728 8.32371 19.7749 8.32371 22.3509C8.32371 31.3853 13.6942 33.4102 18.8025 34.0059C18.1447 34.5947 17.549 35.6334 17.342 37.1583C16.031 37.7609 12.7006 38.8038 10.649 35.1997C10.649 35.1997 9.4323 32.9339 7.1231 32.7683C7.1231 32.7683 4.8806 32.7385 6.9667 34.2013C6.9667 34.2013 8.4732 34.9258 9.5197 37.6513C9.5197 37.6513 10.8698 41.8602 17.2684 40.4342C17.2799 42.4053 17.3006 44.263 17.3006 44.8242C17.3006 45.4475 16.8774 46.1769 15.7297 45.9584C6.58949 42.8419 0 34.0007 0 23.5817C0 10.5568 10.2994 0 23 0Z" fill="white"/>
</svg>
