<svg width="46" height="46" viewBox="0 0 46 46" fill="none" xmlns="http://www.w3.org/2000/svg">
<path fill-rule="evenodd" clip-rule="evenodd" d="M46 23C46 35.7024 35.7024 46 23 46C10.2974 46 0 35.7024 0 23C0 10.2974 10.2974 0 23 0C35.7024 0 46 10.2974 46 23ZM23.8241 16.9796C21.5871 17.9101 17.1161 19.8359 10.4111 22.7571C9.32231 23.1902 8.75196 23.6139 8.70005 24.0279C8.6123 24.728 9.48886 25.0035 10.6825 25.3789C10.8448 25.4299 11.0131 25.4828 11.1855 25.5387C12.3599 25.9205 13.9396 26.3672 14.7608 26.3849C15.5057 26.401 16.3371 26.094 17.255 25.4635C23.5198 21.2348 26.7536 19.0974 26.9565 19.0511C27.0997 19.0187 27.2982 18.9778 27.4328 19.0974C27.5673 19.217 27.554 19.4433 27.5397 19.504C27.453 19.8743 24.0122 23.0731 22.2316 24.7284C21.6766 25.2446 21.2828 25.6105 21.2023 25.6942C21.022 25.8814 20.8382 26.0585 20.6616 26.2287C19.5707 27.2805 18.7524 28.0692 20.7069 29.3572C21.6462 29.9761 22.3976 30.4879 23.1474 30.9985C23.9662 31.5562 24.783 32.1124 25.8398 32.8051C26.1089 32.9815 26.366 33.1649 26.6165 33.3433C27.5694 34.0228 28.4255 34.6332 29.4832 34.5356C30.0978 34.4793 30.7326 33.9013 31.0551 32.1777C31.817 28.1044 33.3148 19.2786 33.661 15.6419C33.6913 15.3232 33.6531 14.9155 33.6225 14.7364C33.5917 14.5574 33.5278 14.3024 33.295 14.1136C33.0195 13.89 32.5942 13.8428 32.4038 13.846C31.5387 13.8614 30.2114 14.3229 23.8241 16.9796Z" fill="white"/>
</svg>
