<svg width="46" height="46" viewBox="0 0 46 46" fill="none" xmlns="http://www.w3.org/2000/svg">
<path d="M33.4384 27.5697C32.8517 27.2937 30.042 25.9137 29.5171 25.699C28.9923 25.4844 28.6218 25.4231 28.2204 26.0057C27.819 26.5884 26.7383 27.8457 26.3987 28.2443C26.0591 28.643 25.7503 28.6737 25.1637 28.2443C23.4787 27.5727 21.9226 26.6184 20.5632 25.4231C19.3327 24.2723 18.2909 22.9376 17.4757 21.4671C17.136 20.9151 17.4757 20.6085 17.7227 20.3018C17.9697 19.9951 18.2784 19.6578 18.5872 19.3205C18.813 19.0288 18.9998 18.7092 19.1429 18.3698C19.2195 18.212 19.2593 18.0391 19.2593 17.8638C19.2593 17.6886 19.2195 17.5157 19.1429 17.3579C19.1429 17.0819 17.8462 14.2912 17.3522 13.1566C16.8581 12.0219 16.4259 12.1753 16.0863 12.1753H14.8512C14.2629 12.1981 13.7077 12.4517 13.3074 12.8806C12.6614 13.4929 12.1497 14.2312 11.8043 15.0491C11.459 15.867 11.2875 16.747 11.3005 17.6339C11.4585 19.8111 12.2645 21.8925 13.6162 23.6137C16.0967 27.2736 19.4902 30.232 23.4655 32.2003C24.8241 32.7829 25.8738 33.1203 26.7075 33.3963C27.8781 33.7477 29.1154 33.8212 30.3199 33.6109C31.1199 33.4497 31.878 33.127 32.5472 32.6628C33.2164 32.1986 33.7825 31.6028 34.2102 30.9123C34.5663 30.0596 34.6836 29.1272 34.5499 28.2137C34.3955 27.999 34.025 27.8457 33.4384 27.5697Z" fill="white"/>
<path d="M39.212 6.686C37.0768 4.54515 34.5315 2.85066 31.7263 1.70249C28.9211 0.554315 25.9128 -0.024296 22.8788 0.00078161C18.8597 0.0216712 14.9165 1.08953 11.4429 3.0977C7.96939 5.10587 5.08711 7.98407 3.08398 11.4448C1.08084 14.9056 0.0269538 18.8278 0.0275832 22.8197C0.0282127 26.8115 1.08333 30.7334 3.08756 34.1935L0 46L12.165 42.9334C15.5281 44.751 19.2971 45.7 23.1258 45.6933H22.8788C27.442 45.7229 31.9106 44.4019 35.7149 41.8989C39.5191 39.3958 42.4866 35.8242 44.2389 31.6393C45.9911 27.4545 46.4488 22.8461 45.5535 18.4019C44.6583 13.9577 42.4506 9.87903 39.212 6.686ZM22.8788 41.7681C19.4533 41.7708 16.0915 40.8486 13.153 39.1001L12.4738 38.7015L5.24886 40.5721L7.16315 33.5802L6.73089 32.8749C4.26502 28.9307 3.34263 24.2247 4.13872 19.6499C4.93481 15.075 7.39399 10.9495 11.0497 8.05612C14.7053 5.16276 19.3032 3.70286 23.9708 3.9534C28.6384 4.20393 33.051 6.14748 36.3715 9.41529C38.1516 11.1691 39.5625 13.2572 40.5219 15.5579C41.4814 17.8587 41.9702 20.3261 41.96 22.8164C41.9518 27.8402 39.9389 32.6559 36.3622 36.2083C32.7856 39.7607 27.937 41.76 22.8788 41.7681Z" fill="white"/>
</svg>
